<svg id="Group_71" data-name="Group 71" xmlns="http://www.w3.org/2000/svg" width="49.978" height="49.978" viewBox="0 0 49.978 49.978">
  <path id="Path_1652" data-name="Path 1652" d="M49.978-50.011A24.989,24.989,0,0,1,24.989-25.022,24.989,24.989,0,0,1,0-50.011,24.989,24.989,0,0,1,24.989-75,24.989,24.989,0,0,1,49.978-50.011" transform="translate(0 75)" fill="#303030"/>
  <path id="Path_1653" data-name="Path 1653" d="M26.485-36.059a4.052,4.052,0,0,1-1.711.293h-4.1v-4.442h4.158a4.312,4.312,0,0,1,1.688.283A1.785,1.785,0,0,1,27.6-38.138a2.094,2.094,0,0,1-1.11,2.079m-5.81-10.579H24.35a6.483,6.483,0,0,1,2,.26,1.5,1.5,0,0,1,.906,1.541,1.567,1.567,0,0,1-.686,1.461,3.437,3.437,0,0,1-1.787.414H20.675Zm7.874,4.825a4.043,4.043,0,0,0,1.289-.948,3.677,3.677,0,0,0,.78-2.453,4.2,4.2,0,0,0-.774-2.542q-1.288-1.73-4.375-1.775H17.31v16.655h7.607A11.865,11.865,0,0,0,27.3-33.1a4.675,4.675,0,0,0,1.907-.836,4.63,4.63,0,0,0,1.2-1.311,4.812,4.812,0,0,0,.753-2.656,4.367,4.367,0,0,0-.657-2.44,3.786,3.786,0,0,0-1.952-1.471" transform="translate(-5.775 66.503)" fill="#fff"/>
  <path id="Path_1654" data-name="Path 1654" d="M43.508-46.292h7.235v-2.073H43.508Z" transform="translate(-14.515 66.114)" fill="#fff" fill-rule="evenodd"/>
  <path id="Path_1655" data-name="Path 1655" d="M43.088-38.244a3.334,3.334,0,0,1,.87-1.907,2.613,2.613,0,0,1,1.948-.7,2.9,2.9,0,0,1,1.939.662,2.69,2.69,0,0,1,.869,1.948ZM51-41.111a5.026,5.026,0,0,0-2.156-1.823,7.179,7.179,0,0,0-2.936-.578A6.075,6.075,0,0,0,41.442-41.8a6.625,6.625,0,0,0-1.719,4.911q0,3.414,1.907,4.931a6.85,6.85,0,0,0,4.4,1.515,6.115,6.115,0,0,0,4.7-1.8,4.031,4.031,0,0,0,1.209-2.226H48.6a2.687,2.687,0,0,1-.674.848,2.793,2.793,0,0,1-1.81.564,3.349,3.349,0,0,1-1.8-.464,2.944,2.944,0,0,1-1.308-2.6h9.1A15.568,15.568,0,0,0,52-38.564a5.944,5.944,0,0,0-1-2.547" transform="translate(-13.252 64.495)" fill="#fff"/>
</svg>
