<svg xmlns="http://www.w3.org/2000/svg" width="37.4" height="37.4" viewBox="0 0 37.4 37.4">
  <g id="Group_61" data-name="Group 61" transform="translate(0 0)">
    <path id="Path_1652" data-name="Path 1652" d="M37.4-56.3A18.7,18.7,0,0,1,18.7-37.6,18.7,18.7,0,0,1,0-56.3,18.7,18.7,0,0,1,18.7-75,18.7,18.7,0,0,1,37.4-56.3" transform="translate(0 75)" fill="#fff"/>
    <path id="Path_1653" data-name="Path 1653" d="M24.176-39.449a3.032,3.032,0,0,1-1.28.219H19.828v-3.324h3.111a3.227,3.227,0,0,1,1.263.211,1.336,1.336,0,0,1,.8,1.337,1.567,1.567,0,0,1-.831,1.556m-4.348-7.917h2.75a4.852,4.852,0,0,1,1.495.194,1.118,1.118,0,0,1,.678,1.153,1.173,1.173,0,0,1-.513,1.093,2.572,2.572,0,0,1-1.337.31H19.828Zm5.892,3.611a3.025,3.025,0,0,0,.964-.709,2.751,2.751,0,0,0,.584-1.836,3.143,3.143,0,0,0-.579-1.9,3.9,3.9,0,0,0-3.274-1.328H17.31v12.464H23a8.879,8.879,0,0,0,1.785-.168,3.5,3.5,0,0,0,1.427-.626,3.465,3.465,0,0,0,.895-.981,3.6,3.6,0,0,0,.563-1.988,3.268,3.268,0,0,0-.492-1.826,2.833,2.833,0,0,0-1.461-1.1" transform="translate(-8.678 62.232)" fill="#303030"/>
    <path id="Path_1654" data-name="Path 1654" d="M43.508-46.814h5.414v-1.551H43.508Z" transform="translate(-21.812 61.647)" fill="#303030" fill-rule="evenodd"/>
    <path id="Path_1655" data-name="Path 1655" d="M42.241-39.57A2.5,2.5,0,0,1,42.893-41a1.955,1.955,0,0,1,1.458-.527,2.171,2.171,0,0,1,1.451.5,2.013,2.013,0,0,1,.65,1.458Zm5.919-2.145a3.761,3.761,0,0,0-1.613-1.364,5.372,5.372,0,0,0-2.2-.433,4.546,4.546,0,0,0-3.341,1.279,4.958,4.958,0,0,0-1.286,3.675,4.43,4.43,0,0,0,1.427,3.69,5.126,5.126,0,0,0,3.29,1.133,4.576,4.576,0,0,0,3.515-1.343,3.017,3.017,0,0,0,.905-1.666H46.366a2.01,2.01,0,0,1-.5.634,2.09,2.09,0,0,1-1.354.422,2.506,2.506,0,0,1-1.347-.347,2.2,2.2,0,0,1-.979-1.944h6.807a11.65,11.65,0,0,0-.082-1.83,4.448,4.448,0,0,0-.747-1.906" transform="translate(-19.914 59.214)" fill="#303030"/>
  </g>
</svg>
