<svg id="Group_69" data-name="Group 69" xmlns="http://www.w3.org/2000/svg" width="49.978" height="49.978" viewBox="0 0 49.978 49.978">
  <path id="Path_1646" data-name="Path 1646" d="M49.978-50.011A24.989,24.989,0,0,1,24.989-25.022,24.989,24.989,0,0,1,0-50.011,24.989,24.989,0,0,1,24.989-75,24.989,24.989,0,0,1,49.978-50.011" transform="translate(0 75)" fill="#303030"/>
  <path id="Path_1647" data-name="Path 1647" d="M34.124-43.8c-.069-.165-.137-.332-.209-.5-.2-.474-.418-.943-.643-1.4a12.453,12.453,0,0,0,5.39-3.828,9.636,9.636,0,0,1,2.2,6.047,22.367,22.367,0,0,0-6.738-.317M36.6-35.367a41.735,41.735,0,0,0-1.883-6.909,14.024,14.024,0,0,1,6.029.422A9.676,9.676,0,0,1,36.6-35.367m-5.406,1.652a9.636,9.636,0,0,1-6.04-2.119l-.124-.1.124.1.093.071s1.855-4.044,7.593-6.044c.021-.008.044-.013.065-.02a40.194,40.194,0,0,1,2.066,7.345,9.648,9.648,0,0,1-3.776.767m-7.2-3.211a9.635,9.635,0,0,1-2.479-6.465c0-.1.005-.2.008-.305a35.467,35.467,0,0,0,9.933-1.379c.277.542.542,1.095.784,1.645-.128.035-.255.073-.381.116A15.3,15.3,0,0,0,23.99-36.93s0,0,0,0m3.068-15.213a57.79,57.79,0,0,1,3.593,5.573,35.787,35.787,0,0,1-8.932,1.181,9.677,9.677,0,0,1,5.339-6.754m1.811-.645a0,0,0,0,1,0,0l-.029.005a.259.259,0,0,0,.031-.008m2.318-.281a9.639,9.639,0,0,1,6.389,2.415,10.543,10.543,0,0,1-5.054,3.5,49.14,49.14,0,0,0-3.616-5.644,9.673,9.673,0,0,1,2.281-.273M41.627-47.8a11.139,11.139,0,0,0-1.044-1.923A11.318,11.318,0,0,0,39.2-51.4a11.337,11.337,0,0,0-1.677-1.383A11.29,11.29,0,0,0,35.6-53.827a11.333,11.333,0,0,0-2.129-.66,11.4,11.4,0,0,0-2.28-.231,11.412,11.412,0,0,0-2.282.231,11.342,11.342,0,0,0-2.128.66,11.327,11.327,0,0,0-1.925,1.046A11.361,11.361,0,0,0,23.179-51.4,11.36,11.36,0,0,0,21.8-49.723,11.188,11.188,0,0,0,20.753-47.8a11.278,11.278,0,0,0-.662,2.13,11.433,11.433,0,0,0-.229,2.28,11.461,11.461,0,0,0,.229,2.283,11.207,11.207,0,0,0,.662,2.127A11.218,11.218,0,0,0,21.8-37.054a11.494,11.494,0,0,0,1.381,1.675A11.479,11.479,0,0,0,24.855-34a11.273,11.273,0,0,0,1.925,1.044,11.148,11.148,0,0,0,2.128.66,11.268,11.268,0,0,0,2.282.232,11.258,11.258,0,0,0,2.28-.232,11.14,11.14,0,0,0,2.129-.66A11.237,11.237,0,0,0,37.524-34,11.455,11.455,0,0,0,39.2-35.379a11.451,11.451,0,0,0,1.381-1.675,11.169,11.169,0,0,0,1.044-1.926,11.306,11.306,0,0,0,.662-2.127,11.461,11.461,0,0,0,.229-2.283,11.433,11.433,0,0,0-.229-2.28,11.377,11.377,0,0,0-.662-2.13" transform="translate(-6.626 68.234)" fill="#fff"/>
</svg>
