<svg xmlns="http://www.w3.org/2000/svg" width="37.4" height="37.4" viewBox="0 0 37.4 37.4">
  <g id="Group_59" data-name="Group 59" transform="translate(0 0)">
    <path id="Path_1646" data-name="Path 1646" d="M37.4-56.3A18.7,18.7,0,0,1,18.7-37.6,18.7,18.7,0,0,1,0-56.3,18.7,18.7,0,0,1,18.7-75,18.7,18.7,0,0,1,37.4-56.3" transform="translate(0 75)" fill="#fff"/>
    <path id="Path_1647" data-name="Path 1647" d="M30.535-46.551c-.052-.124-.1-.248-.157-.373-.151-.355-.313-.706-.481-1.05a9.319,9.319,0,0,0,4.033-2.865,7.211,7.211,0,0,1,1.647,4.525,16.738,16.738,0,0,0-5.043-.237m1.85,6.314a31.232,31.232,0,0,0-1.409-5.17,10.494,10.494,0,0,1,4.512.316,7.241,7.241,0,0,1-3.1,4.855M28.34-39a7.211,7.211,0,0,1-4.52-1.586l-.093-.074.093.074.069.053a9.811,9.811,0,0,1,5.682-4.523c.016-.006.033-.01.049-.015a30.078,30.078,0,0,1,1.546,5.5A7.22,7.22,0,0,1,28.34-39m-5.386-2.4A7.21,7.21,0,0,1,21.1-46.241c0-.077,0-.153.006-.228A26.541,26.541,0,0,0,28.538-47.5c.207.405.405.819.587,1.231-.1.026-.19.055-.285.087a11.451,11.451,0,0,0-5.889,4.777l0,0m2.3-11.384a43.247,43.247,0,0,1,2.689,4.17,26.78,26.78,0,0,1-6.684.884,7.242,7.242,0,0,1,4-5.055M26.6-53.27v0l-.022,0,.023-.006m1.735-.21a7.213,7.213,0,0,1,4.781,1.807,7.889,7.889,0,0,1-3.782,2.621,36.773,36.773,0,0,0-2.706-4.224,7.238,7.238,0,0,1,1.707-.2m7.81,3.94a8.336,8.336,0,0,0-.781-1.439,8.47,8.47,0,0,0-1.034-1.254,8.484,8.484,0,0,0-1.255-1.035,8.449,8.449,0,0,0-1.44-.782,8.481,8.481,0,0,0-1.593-.494,8.533,8.533,0,0,0-1.706-.173,8.54,8.54,0,0,0-1.708.173,8.487,8.487,0,0,0-1.593.494,8.477,8.477,0,0,0-1.441.782,8.5,8.5,0,0,0-1.254,1.035,8.5,8.5,0,0,0-1.034,1.254,8.372,8.372,0,0,0-.782,1.439,8.44,8.44,0,0,0-.5,1.594,8.555,8.555,0,0,0-.172,1.706,8.576,8.576,0,0,0,.172,1.708,8.387,8.387,0,0,0,.5,1.592,8.4,8.4,0,0,0,.782,1.442,8.6,8.6,0,0,0,1.034,1.254A8.59,8.59,0,0,0,23.6-39.212a8.436,8.436,0,0,0,1.441.781,8.342,8.342,0,0,0,1.593.494,8.432,8.432,0,0,0,1.708.174,8.425,8.425,0,0,0,1.706-.174,8.336,8.336,0,0,0,1.593-.494,8.409,8.409,0,0,0,1.44-.781,8.572,8.572,0,0,0,1.255-1.034A8.569,8.569,0,0,0,35.368-41.5a8.358,8.358,0,0,0,.781-1.442,8.461,8.461,0,0,0,.5-1.592,8.576,8.576,0,0,0,.172-1.708,8.555,8.555,0,0,0-.172-1.706,8.514,8.514,0,0,0-.5-1.594" transform="translate(-9.957 64.832)" fill="#303030"/>
  </g>
</svg>
