<svg xmlns="http://www.w3.org/2000/svg" width="37.4" height="37.4" viewBox="0 0 37.4 37.4">
  <g id="Group_56" data-name="Group 56" transform="translate(0 0)">
    <path id="Path_1637" data-name="Path 1637" d="M37.4-56.3A18.7,18.7,0,0,1,18.7-37.6,18.7,18.7,0,0,1,0-56.3,18.7,18.7,0,0,1,18.7-75,18.7,18.7,0,0,1,37.4-56.3" transform="translate(0 75)" fill="#fff"/>
    <path id="Path_1638" data-name="Path 1638" d="M36.456-40.11H28.735v-3.564H37.05Z" transform="translate(-14.406 59.295)" fill="#303030"/>
    <path id="Path_1639" data-name="Path 1639" d="M32.341-52v14.23h3.548V-51.427a.538.538,0,0,1,.594-.594h2.376v-3.564H36.122c-3.874,0-3.782,3.123-3.782,3.588" transform="translate(-16.213 65.267)" fill="#303030"/>
  </g>
</svg>
