<svg id="Group_67" data-name="Group 67" xmlns="http://www.w3.org/2000/svg" width="49.978" height="49.978" viewBox="0 0 49.978 49.978">
  <path id="Path_1637" data-name="Path 1637" d="M49.978-50.011A24.989,24.989,0,0,1,24.989-25.022,24.989,24.989,0,0,1,0-50.011,24.989,24.989,0,0,1,24.989-75,24.989,24.989,0,0,1,49.978-50.011" transform="translate(0 75)" fill="#303030"/>
  <path id="Path_1638" data-name="Path 1638" d="M39.053-38.912H28.735v-4.762H39.847Z" transform="translate(-9.587 64.549)" fill="#fff"/>
  <path id="Path_1639" data-name="Path 1639" d="M32.341-50.79v19.016h4.741V-50.029a.718.718,0,0,1,.794-.794h3.175v-4.763H37.394c-5.176,0-5.054,4.173-5.054,4.8" transform="translate(-10.789 68.523)" fill="#fff"/>
</svg>
