<svg xmlns="http://www.w3.org/2000/svg" width="72" height="72" viewBox="0 0 72 72">
  <g id="coding" transform="translate(0 -0.001)">
    <g id="Group_109" data-name="Group 109" transform="translate(54.844 52.606)">
      <g id="Group_108" data-name="Group 108">
        <path id="Path_1737" data-name="Path 1737" d="M392.4,374.492a1.405,1.405,0,1,0,.412.994A1.417,1.417,0,0,0,392.4,374.492Z" transform="translate(-390 -374.08)"/>
      </g>
    </g>
    <g id="Group_111" data-name="Group 111" transform="translate(0 0.001)">
      <g id="Group_110" data-name="Group 110" transform="translate(0 0)">
        <path id="Path_1738" data-name="Path 1738" d="M66.375,0H5.625A5.631,5.631,0,0,0,0,5.626V49.794a5.631,5.631,0,0,0,5.625,5.625H27.7v7.059a8.167,8.167,0,0,0-7.359,8.117A1.406,1.406,0,0,0,21.75,72h28.5a1.406,1.406,0,0,0,1.406-1.406,8.166,8.166,0,0,0-7.641-8.138V55.419h6.563a1.406,1.406,0,1,0,0-2.812H5.625a2.816,2.816,0,0,1-2.812-2.812V5.626A2.816,2.816,0,0,1,5.625,2.814h60.75a2.816,2.816,0,0,1,2.813,2.812V49.794a2.816,2.816,0,0,1-2.812,2.813h-5.25a1.406,1.406,0,1,0,0,2.813h5.25A5.631,5.631,0,0,0,72,49.794V5.626A5.631,5.631,0,0,0,66.375,0ZM30.516,55.419H41.2v7.02H30.516ZM43.5,65.251a5.354,5.354,0,0,1,5.156,3.938H23.344A5.353,5.353,0,0,1,28.5,65.251Z" transform="translate(0 -0.001)"/>
      </g>
    </g>
    <g id="Group_113" data-name="Group 113" transform="translate(34.453 48.106)">
      <g id="Group_112" data-name="Group 112">
        <path id="Path_1739" data-name="Path 1739" d="M247.4,342.493a1.405,1.405,0,1,0,.412.994A1.417,1.417,0,0,0,247.4,342.493Z" transform="translate(-245 -342.081)"/>
      </g>
    </g>
    <g id="Group_115" data-name="Group 115" transform="translate(17.164 16.489)">
      <g id="Group_114" data-name="Group 114">
        <path id="Path_1740" data-name="Path 1740" d="M125.45,126.539l6.89-6.89a1.406,1.406,0,1,0-1.989-1.989l-7.884,7.884a1.406,1.406,0,0,0,0,1.989l7.884,7.884a1.406,1.406,0,1,0,1.989-1.989Z" transform="translate(-122.055 -117.248)"/>
      </g>
    </g>
    <g id="Group_117" data-name="Group 117" transform="translate(44.139 16.489)">
      <g id="Group_116" data-name="Group 116">
        <path id="Path_1741" data-name="Path 1741" d="M324.162,125.544l-7.884-7.884a1.406,1.406,0,1,0-1.989,1.989l6.89,6.89-6.89,6.89a1.406,1.406,0,0,0,1.989,1.989l7.884-7.884A1.406,1.406,0,0,0,324.162,125.544Z" transform="translate(-313.877 -117.248)"/>
      </g>
    </g>
    <g id="Group_119" data-name="Group 119" transform="translate(32.488 17.043)">
      <g id="Group_118" data-name="Group 118">
        <path id="Path_1742" data-name="Path 1742" d="M237.009,121.234a1.406,1.406,0,0,0-1.722.994l-4.21,15.712a1.406,1.406,0,1,0,2.717.728L238,122.957A1.406,1.406,0,0,0,237.009,121.234Z" transform="translate(-231.028 -121.186)"/>
      </g>
    </g>
    <g id="Group_121" data-name="Group 121" transform="translate(5.625 5.638)">
      <g id="Group_120" data-name="Group 120">
        <path id="Path_1743" data-name="Path 1743" d="M99.344,40.084H76.984a1.406,1.406,0,1,0,0,2.813H97.938V78.053H42.813V42.9H64.4a1.406,1.406,0,0,0,0-2.812H41.406A1.406,1.406,0,0,0,40,41.49V79.459a1.406,1.406,0,0,0,1.406,1.406H99.344a1.406,1.406,0,0,0,1.406-1.406V41.49A1.406,1.406,0,0,0,99.344,40.084Z" transform="translate(-40 -40.084)"/>
      </g>
    </g>
    <g id="Group_123" data-name="Group 123" transform="translate(34.875 5.637)">
      <g id="Group_122" data-name="Group 122">
        <path id="Path_1744" data-name="Path 1744" d="M250.4,40.493a1.407,1.407,0,1,0,.412.994A1.417,1.417,0,0,0,250.4,40.493Z" transform="translate(-248 -40.081)"/>
      </g>
    </g>
  </g>
</svg>
