<svg id="wireframe" xmlns="http://www.w3.org/2000/svg" width="72.438" height="72.438" viewBox="0 0 72.438 72.438">
  <path id="Path_1707" data-name="Path 1707" d="M293.415,40a1.415,1.415,0,1,0,1.415,1.415A1.415,1.415,0,0,0,293.415,40Zm0,0" transform="translate(-250.688 -34.341)"/>
  <path id="Path_1708" data-name="Path 1708" d="M339.074,40h-5.659a1.415,1.415,0,0,0,0,2.83h5.659a1.415,1.415,0,0,0,0-2.83Zm0,0" transform="translate(-285.029 -34.341)"/>
  <path id="Path_1709" data-name="Path 1709" d="M419.074,40h-5.659a1.415,1.415,0,0,0,0,2.83h5.659a1.415,1.415,0,0,0,0-2.83Zm0,0" transform="translate(-353.71 -34.341)"/>
  <path id="Path_1710" data-name="Path 1710" d="M68.193,0H4.244A4.249,4.249,0,0,0,0,4.244V68.193a4.249,4.249,0,0,0,4.244,4.244H68.193a4.249,4.249,0,0,0,4.244-4.244V4.244A4.249,4.249,0,0,0,68.193,0Zm1.415,68.193a1.416,1.416,0,0,1-1.415,1.415H4.244A1.416,1.416,0,0,1,2.83,68.193V14.148H69.608Zm0-56.875H2.83V4.244A1.416,1.416,0,0,1,4.244,2.83H68.193a1.416,1.416,0,0,1,1.415,1.415Zm0,0"/>
  <path id="Path_1711" data-name="Path 1711" d="M67.415,157.318h50.933a1.415,1.415,0,0,0,1.415-1.415v-8.489A1.415,1.415,0,0,0,118.347,146H67.415A1.415,1.415,0,0,0,66,147.415V155.9A1.415,1.415,0,0,0,67.415,157.318Zm1.415-8.489h48.1v5.659H68.83Zm0,0" transform="translate(-56.662 -125.344)"/>
  <path id="Path_1712" data-name="Path 1712" d="M67.415,294.466H84.392a1.415,1.415,0,0,0,1.415-1.415V270.415A1.415,1.415,0,0,0,84.392,269H67.415A1.415,1.415,0,0,0,66,270.415v22.637A1.415,1.415,0,0,0,67.415,294.466ZM68.83,271.83H82.978v19.807H68.83Zm0,0" transform="translate(-56.662 -230.942)"/>
  <path id="Path_1713" data-name="Path 1713" d="M272.881,269H247.415l-.041,0A1.416,1.416,0,0,0,246,270.415v22.637c0,.008,0,.017,0,.025a1.416,1.416,0,0,0,1.414,1.39h25.466a1.415,1.415,0,0,0,1.414-1.39c0-.008,0-.017,0-.025V270.415A1.418,1.418,0,0,0,272.881,269Zm-3.721,2.83-9.012,8.011-9.012-8.011Zm-20.33,1.736,9.189,8.168L248.83,289.9Zm2.306,18.071,9.012-8.011,9.012,8.011Zm20.33-1.736-9.189-8.168,9.189-8.168Zm0,0" transform="translate(-211.196 -230.942)"/>
</svg>
