<svg id="satisfaction" xmlns="http://www.w3.org/2000/svg" width="76.66" height="69.533" viewBox="0 0 76.66 69.533">
  <path id="Path_1673" data-name="Path 1673" d="M161.942,29.609h-4.118a1.123,1.123,0,0,0,0,2.246h3.743V92.538H103.623a1.123,1.123,0,1,0,0,2.246h58.319a1.874,1.874,0,0,0,1.872-1.872V31.481A1.873,1.873,0,0,0,161.942,29.609Zm0,0" transform="translate(-87.153 -25.251)"/>
  <path id="Path_1674" data-name="Path 1674" d="M11.08,67.787H2.246V7.1H14.309a2.2,2.2,0,0,0,.658.535l5.893,3.21a7,7,0,0,0,2.921.744H60.346A2.394,2.394,0,0,0,62.739,9.2V7.1h2.692a1.123,1.123,0,0,0,0-2.246H62.739V2.888A2.393,2.393,0,0,0,60.346.5H23.78a7,7,0,0,0-2.921.744L14.966,4.453a2.287,2.287,0,0,0-.542.405H1.872A1.873,1.873,0,0,0,0,6.73V68.161a1.874,1.874,0,0,0,1.872,1.872H11.08a1.123,1.123,0,1,0,0-2.246Zm44.3-65.041h4.971a.148.148,0,0,1,.147.142V9.2a.148.148,0,0,1-.147.143H55.376Zm-29.961,0H53.13V4.923H25.415Zm0,4.423H53.13V9.346H25.415Zm-4.828-3.22,1.346-.733a4.684,4.684,0,0,1,1.235-.4V9.278a4.718,4.718,0,0,1-1.236-.4l-1.346-.733ZM18.342,5.172V6.92l-1.6-.874Zm0,0" transform="translate(0 -0.5)"/>
  <path id="Path_1675" data-name="Path 1675" d="M201.389,315.319a9.578,9.578,0,0,0,9.185-6.83,1.123,1.123,0,0,0-2.147-.659,7.344,7.344,0,0,1-7.038,5.243,7.457,7.457,0,1,1,6.951-9.935,1.123,1.123,0,0,0,2.121-.738,9.633,9.633,0,1,0-9.073,12.919Zm0,0" transform="translate(-163.06 -251.683)"/>
  <path id="Path_1676" data-name="Path 1676" d="M226.59,340.819v-.883a1.123,1.123,0,1,0-2.246,0v.883a1.123,1.123,0,1,0,2.246,0Zm0,0" transform="translate(-190.754 -288.158)"/>
  <path id="Path_1677" data-name="Path 1677" d="M274.879,340.819v-.883a1.123,1.123,0,1,0-2.246,0v.883a1.123,1.123,0,1,0,2.246,0Zm0,0" transform="translate(-231.813 -288.158)"/>
  <path id="Path_1678" data-name="Path 1678" d="M232.986,374.066h4.978a1.123,1.123,0,0,0,0-2.246h-4.978a1.123,1.123,0,1,0,0,2.246Zm0,0" transform="translate(-197.147 -316.223)"/>
  <path id="Path_1679" data-name="Path 1679" d="M58.845,315.316a9.7,9.7,0,1,0-9.615-9.7A9.67,9.67,0,0,0,58.845,315.316Zm0-17.159a7.457,7.457,0,1,1-7.369,7.457A7.421,7.421,0,0,1,58.845,298.156Zm0,0" transform="translate(-41.859 -251.68)"/>
  <path id="Path_1680" data-name="Path 1680" d="M82.924,341.942a1.122,1.122,0,0,0,1.123-1.123v-.883a1.123,1.123,0,1,0-2.246,0v.883A1.123,1.123,0,0,0,82.924,341.942Zm0,0" transform="translate(-69.553 -288.158)"/>
  <path id="Path_1681" data-name="Path 1681" d="M131.213,341.942a1.123,1.123,0,0,0,1.123-1.123v-.883a1.123,1.123,0,1,0-2.246,0v.883A1.123,1.123,0,0,0,131.213,341.942Zm0,0" transform="translate(-110.612 -288.158)"/>
  <path id="Path_1682" data-name="Path 1682" d="M87.891,368.037a3.837,3.837,0,0,0,7.653,0,1.123,1.123,0,0,0-2.246,0,1.608,1.608,0,0,1-3.161,0,1.123,1.123,0,1,0-2.246,0Zm0,0" transform="translate(-74.731 -312.052)"/>
  <path id="Path_1683" data-name="Path 1683" d="M343.958,315.316a9.7,9.7,0,1,0-9.614-9.7A9.67,9.67,0,0,0,343.958,315.316Zm0-17.159a7.457,7.457,0,1,1-7.368,7.457A7.422,7.422,0,0,1,343.958,298.156Zm0,0" transform="translate(-284.284 -251.68)"/>
  <path id="Path_1684" data-name="Path 1684" d="M368.033,341.942a1.122,1.122,0,0,0,1.123-1.123v-.883a1.123,1.123,0,1,0-2.246,0v.883A1.123,1.123,0,0,0,368.033,341.942Zm0,0" transform="translate(-311.974 -288.158)"/>
  <path id="Path_1685" data-name="Path 1685" d="M416.326,341.942a1.123,1.123,0,0,0,1.123-1.123v-.883a1.123,1.123,0,1,0-2.246,0v.883A1.123,1.123,0,0,0,416.326,341.942Zm0,0" transform="translate(-353.036 -288.158)"/>
  <path id="Path_1686" data-name="Path 1686" d="M373,367.267a1.123,1.123,0,0,0,2.246,0,1.609,1.609,0,0,1,3.162,0,1.123,1.123,0,0,0,2.246,0,3.837,3.837,0,0,0-7.654,0Zm0,0" transform="translate(-317.152 -309.329)"/>
  <path id="Path_1687" data-name="Path 1687" d="M50.8,111.218h7.785a1.574,1.574,0,0,0,1.572-1.572v-6.482l.443-.446a1.122,1.122,0,0,0-.825-1.913,1.567,1.567,0,0,0-1.19-.547H50.8a1.573,1.573,0,0,0-1.572,1.572v7.817a1.573,1.573,0,0,0,1.572,1.572Zm.674-8.715h6.174L54.9,105.277l-.907-.914a1.123,1.123,0,1,0-1.594,1.582l1.387,1.4a1.556,1.556,0,0,0,1.114.464h0a1.556,1.556,0,0,0,1.113-.463l1.9-1.918v3.546H51.476Zm0,0" transform="translate(-41.859 -85.321)"/>
  <path id="Path_1688" data-name="Path 1688" d="M139.42,119.324H152.8a1.123,1.123,0,1,0,0-2.246H139.42a1.123,1.123,0,0,0,0,2.246Zm0,0" transform="translate(-117.59 -99.623)"/>
  <path id="Path_1689" data-name="Path 1689" d="M139.42,143.887h7.619a1.123,1.123,0,1,0,0-2.246H139.42a1.123,1.123,0,0,0,0,2.246Zm0,0" transform="translate(-117.59 -120.508)"/>
  <path id="Path_1690" data-name="Path 1690" d="M49.23,204.9a1.574,1.574,0,0,0,1.572,1.572h7.785A1.574,1.574,0,0,0,60.16,204.9v-7.817a1.574,1.574,0,0,0-1.572-1.572H50.8a1.574,1.574,0,0,0-1.572,1.572Zm2.246-7.143h6.438v6.469H51.476Zm0,0" transform="translate(-41.859 -166.313)"/>
  <path id="Path_1691" data-name="Path 1691" d="M139.42,214.582H152.8a1.123,1.123,0,1,0,0-2.246H139.42a1.123,1.123,0,0,0,0,2.246Zm0,0" transform="translate(-117.59 -180.618)"/>
  <path id="Path_1692" data-name="Path 1692" d="M148.162,238.018a1.122,1.122,0,0,0-1.123-1.123H139.42a1.123,1.123,0,0,0,0,2.246h7.619A1.123,1.123,0,0,0,148.162,238.018Zm0,0" transform="translate(-117.59 -201.5)"/>
  <path id="Path_1693" data-name="Path 1693" d="M270.916,111.215H278.7a1.574,1.574,0,0,0,1.572-1.572v-7.817a1.574,1.574,0,0,0-1.572-1.572h-7.785a1.574,1.574,0,0,0-1.572,1.572v7.817A1.573,1.573,0,0,0,270.916,111.215Zm.674-8.715h6.438v6.469H271.59Zm0,0" transform="translate(-229.016 -85.318)"/>
  <path id="Path_1694" data-name="Path 1694" d="M358.406,118.2a1.123,1.123,0,0,0,1.123,1.123h13.38a1.123,1.123,0,1,0,0-2.246h-13.38A1.123,1.123,0,0,0,358.406,118.2Zm0,0" transform="translate(-304.743 -99.623)"/>
  <path id="Path_1695" data-name="Path 1695" d="M359.529,143.887h7.62a1.123,1.123,0,1,0,0-2.246h-7.62a1.123,1.123,0,0,0,0,2.246Zm0,0" transform="translate(-304.743 -120.508)"/>
  <path id="Path_1696" data-name="Path 1696" d="M280.273,204.9v-7.817a1.574,1.574,0,0,0-1.572-1.572h-7.785a1.574,1.574,0,0,0-1.572,1.572V204.9a1.574,1.574,0,0,0,1.572,1.572H278.7A1.574,1.574,0,0,0,280.273,204.9Zm-2.246-.674H271.59v-6.469h6.438Zm0,0" transform="translate(-229.016 -166.313)"/>
  <path id="Path_1697" data-name="Path 1697" d="M372.913,212.336H359.534a1.123,1.123,0,1,0,0,2.246h13.379a1.123,1.123,0,1,0,0-2.246Zm0,0" transform="translate(-304.747 -180.618)"/>
  <path id="Path_1698" data-name="Path 1698" d="M367.149,239.141a1.123,1.123,0,1,0,0-2.246h-7.62a1.123,1.123,0,0,0,0,2.246Zm0,0" transform="translate(-304.743 -201.5)"/>
</svg>
