<svg xmlns="http://www.w3.org/2000/svg" width="49.978" height="49.978" viewBox="0 0 49.978 49.978">
  <g id="Group_68" data-name="Group 68" transform="translate(0)">
    <path id="Path_1642" data-name="Path 1642" d="M49.978-50.011A24.989,24.989,0,0,1,24.989-25.022,24.989,24.989,0,0,1,0-50.011,24.989,24.989,0,0,1,24.989-75,24.989,24.989,0,0,1,49.978-50.011" transform="translate(0 75)" fill="#303030"/>
    <path id="Path_1643" data-name="Path 1643" d="M40.543-38.312a4.191,4.191,0,0,1-4.134,4.222H26.077a4.191,4.191,0,0,1-4.134-4.222V-48.469a4.191,4.191,0,0,1,4.134-4.222H36.409a4.191,4.191,0,0,1,4.134,4.222ZM36.6-54.718H25.886a6.054,6.054,0,0,0-5.972,6.1v10.459a6.055,6.055,0,0,0,5.972,6.1H36.6a6.055,6.055,0,0,0,5.972-6.1V-48.62a6.054,6.054,0,0,0-5.972-6.1" transform="translate(-6.644 68.234)" fill="#fff"/>
    <path id="Path_1644" data-name="Path 1644" d="M34.06-36.876a3.715,3.715,0,0,1-3.675-3.753,3.715,3.715,0,0,1,3.675-3.754,3.715,3.715,0,0,1,3.675,3.753,3.715,3.715,0,0,1-3.675,3.754m0-9.571a5.758,5.758,0,0,0-5.7,5.817,5.758,5.758,0,0,0,5.7,5.818,5.758,5.758,0,0,0,5.7-5.817,5.758,5.758,0,0,0-5.7-5.818" transform="translate(-9.463 65.474)" fill="#fff"/>
    <path id="Path_1645" data-name="Path 1645" d="M46.562-47.574a1.3,1.3,0,0,1-1.286,1.313,1.3,1.3,0,0,1-1.286-1.313,1.3,1.3,0,0,1,1.286-1.313,1.3,1.3,0,0,1,1.286,1.313" transform="translate(-14.676 66.288)" fill="#fff"/>
  </g>
</svg>
