<svg xmlns="http://www.w3.org/2000/svg" width="49.978" height="49.978" viewBox="0 0 49.978 49.978">
  <g id="Group_70" data-name="Group 70" transform="translate(0)">
    <path id="Path_1648" data-name="Path 1648" d="M49.978-50.011A24.989,24.989,0,0,1,24.989-25.022,24.989,24.989,0,0,1,0-50.011,24.989,24.989,0,0,1,24.989-75,24.989,24.989,0,0,1,49.978-50.011" transform="translate(0 75)" fill="#303030"/>
    <path id="Path_1649" data-name="Path 1649" d="M21.487-30.149h4.94V-45.8h-4.94Z" transform="translate(-7.169 65.259)" fill="#fff" fill-rule="evenodd"/>
    <path id="Path_1650" data-name="Path 1650" d="M43.908-46.027c-2.83,0-4.6,1.533-4.931,2.607v-2.456h-5.55c.071,1.3,0,15.653,0,15.653h5.55v-8.47a3.562,3.562,0,0,1,.121-1.279,2.828,2.828,0,0,1,2.675-1.918c1.927,0,2.8,1.447,2.8,3.568v8.1h5.6v-8.7c0-4.848-2.758-7.1-6.269-7.1" transform="translate(-11.152 65.334)" fill="#fff"/>
    <path id="Path_1651" data-name="Path 1651" d="M23.546-56.89a2.759,2.759,0,0,0-3.018,2.717,2.731,2.731,0,0,0,2.948,2.713h.035a2.753,2.753,0,0,0,3.013-2.717,2.743,2.743,0,0,0-2.979-2.713" transform="translate(-6.849 68.958)" fill="#fff"/>
  </g>
</svg>
