<svg xmlns="http://www.w3.org/2000/svg" width="37.4" height="37.4" viewBox="0 0 37.4 37.4">
  <g id="Group_58" data-name="Group 58" transform="translate(0 0)">
    <path id="Path_1642" data-name="Path 1642" d="M37.4-56.3A18.7,18.7,0,0,1,18.7-37.6,18.7,18.7,0,0,1,0-56.3,18.7,18.7,0,0,1,18.7-75,18.7,18.7,0,0,1,37.4-56.3" transform="translate(0 75)" fill="#fff"/>
    <path id="Path_1643" data-name="Path 1643" d="M35.351-42.441a3.136,3.136,0,0,1-3.094,3.16H24.526a3.136,3.136,0,0,1-3.094-3.16v-7.6a3.136,3.136,0,0,1,3.094-3.16h7.732a3.136,3.136,0,0,1,3.094,3.16ZM32.4-54.718H24.383a4.53,4.53,0,0,0-4.469,4.564v7.827a4.531,4.531,0,0,0,4.469,4.564H32.4a4.531,4.531,0,0,0,4.469-4.564v-7.827A4.53,4.53,0,0,0,32.4-54.718" transform="translate(-9.983 64.832)" fill="#303030"/>
    <path id="Path_1644" data-name="Path 1644" d="M32.627-39.285a2.78,2.78,0,0,1-2.75-2.809,2.78,2.78,0,0,1,2.75-2.809,2.78,2.78,0,0,1,2.75,2.809,2.78,2.78,0,0,1-2.75,2.809m0-7.162a4.309,4.309,0,0,0-4.263,4.353,4.309,4.309,0,0,0,4.263,4.354,4.309,4.309,0,0,0,4.263-4.353,4.309,4.309,0,0,0-4.263-4.354" transform="translate(-14.22 60.686)" fill="#303030"/>
    <path id="Path_1645" data-name="Path 1645" d="M45.915-47.9a.973.973,0,0,1-.962.983.973.973,0,0,1-.962-.983.973.973,0,0,1,.962-.983.973.973,0,0,1,.962.983" transform="translate(-22.053 61.909)" fill="#303030"/>
  </g>
</svg>
