<svg xmlns="http://www.w3.org/2000/svg" width="37.4" height="37.4" viewBox="0 0 37.4 37.4">
  <g id="Group_60" data-name="Group 60" transform="translate(0 0)">
    <path id="Path_1648" data-name="Path 1648" d="M37.4-56.3A18.7,18.7,0,0,1,18.7-37.6,18.7,18.7,0,0,1,0-56.3,18.7,18.7,0,0,1,18.7-75,18.7,18.7,0,0,1,37.4-56.3" transform="translate(0 75)" fill="#fff"/>
    <path id="Path_1649" data-name="Path 1649" d="M21.487-34.088h3.7V-45.8h-3.7Z" transform="translate(-10.772 60.362)" fill="#303030" fill-rule="evenodd"/>
    <path id="Path_1650" data-name="Path 1650" d="M41.27-46.027c-2.118,0-3.445,1.147-3.69,1.951v-1.838H33.427c.053.976,0,11.713,0,11.713H37.58V-40.54a2.666,2.666,0,0,1,.09-.957,2.116,2.116,0,0,1,2-1.435c1.442,0,2.1,1.083,2.1,2.67V-34.2h4.192v-6.513c0-3.628-2.064-5.313-4.691-5.313" transform="translate(-16.758 60.475)" fill="#303030"/>
    <path id="Path_1651" data-name="Path 1651" d="M22.786-56.89a2.065,2.065,0,0,0-2.258,2.034,2.044,2.044,0,0,0,2.206,2.031h.026a2.06,2.06,0,0,0,2.255-2.034,2.053,2.053,0,0,0-2.229-2.031" transform="translate(-10.291 65.921)" fill="#303030"/>
  </g>
</svg>
